<?xml version="1.0" encoding="utf-8"?>
<!-- Generator: Adobe Illustrator 24.0.1, SVG Export Plug-In . SVG Version: 6.00 Build 0)  -->
<svg version="1.1" id="Layer_1" xmlns="http://www.w3.org/2000/svg" xmlns:xlink="http://www.w3.org/1999/xlink" x="0px" y="0px"
	 viewBox="0 0 611.7 403.7" style="enable-background:new 0 0 611.7 403.7;" xml:space="preserve">
<style type="text/css">
	.st0{fill:#EBF3FA;}
	.st1{fill:#F8FBFF;}
	.st2{fill:#C4D9ED;}
	.st3{fill:#D5E7F7;}
	.st4{fill:#DCEAF9;}
	.st5{opacity:0.8;}
	.st6{fill:#ADC9E0;}
	.st7{fill:#ABC6DD;}
	.st8{fill:#0F50C7;}
	.st9{opacity:0.3;fill:#0F50C7;enable-background:new    ;}
	.st10{fill:#0F3CC7;}
	.st11{fill:#0F78C7;}
	.st12{fill:#0F4BC7;}
	.st13{fill:#0F6BC7;}
	.st14{fill:#A2C2DD;}
	.st15{fill:#0F55C7;}
	.st16{opacity:0.3;fill:#0F5AC7;enable-background:new    ;}
	.st17{fill:#41BA03;}
	.st18{fill:#A8D29F;}
	.st19{fill:url(#Rectangle_529_1_);}
	.st20{fill:#FFB27D;}
	.st21{fill:#FFC197;}
	.st22{opacity:0.3;fill:#E2915A;enable-background:new    ;}
	.st23{fill:#418203;}
	.st24{opacity:0.4;fill:#418203;enable-background:new    ;}
	.st25{opacity:0.4;fill:#419603;enable-background:new    ;}
	.st26{fill:#FBECDB;}
	.st27{fill:#FCE6D2;}
	.st28{fill:#41A503;}
	.st29{fill:#E0B477;}
</style>
<path id="Path_2824" class="st0" d="M566.9,327.3c0,0-28.6,0.1-72.3,0.1c-127.8,0.2-384.6,0.7-429.4,0.4
	C5.1,327.5-36.5,170,75.9,180.7c122.1,11.6,32.8-59.3,104.7-71.1c78.3-12.8,94,36.5,150.2,16.4c76.8-27.5,118.5-18,145.3,2.1
	c29.3,22.1,40.5,56.8,60.2,68.9c0.4,0.3,0.9,0.5,1.3,0.8c38.2,21.2,55.6,41.7,61.3,60C611.5,298.3,566.9,327.3,566.9,327.3z"/>
<path id="Path_2825" class="st1" d="M536.4,197.1L246.5,247l-21.7-26.3l251.3-92.5C505.5,150.2,516.7,184.9,536.4,197.1z"/>
<path id="Path_2826" class="st1" d="M385,135L98.1,228.7c8.4-6.2-11-40,0.4-51.3L385,135z"/>
<path id="Path_2827" class="st1" d="M420.3,119.2c-3.8,0-6.9,3.1-6.9,7s3.1,7,6.9,7s6.9-3.1,6.9-7l0,0
	C427.2,122.4,424.1,119.2,420.3,119.2z"/>
<g id="Group_2377" transform="translate(308.509 334.436)">
	<g id="Group_2294" transform="translate(297.703 0)">
		<rect id="Rectangle_261" x="-275.5" y="-192.3" class="st2" width="32.8" height="161.2"/>
		<rect id="Rectangle_262" x="-268.1" y="-192.3" class="st3" width="32.8" height="161.2"/>
		<rect id="Rectangle_263" x="-268.1" y="-192.4" class="st2" width="32.8" height="9.4"/>
		<rect id="Rectangle_264" x="-268.1" y="-172.1" class="st2" width="32.8" height="9.4"/>
		<rect id="Rectangle_265" x="-268.1" y="-152" class="st2" width="32.8" height="9.4"/>
		<rect id="Rectangle_266" x="-268.1" y="-131.7" class="st2" width="32.8" height="9.4"/>
		<rect id="Rectangle_267" x="-268.1" y="-111.6" class="st2" width="32.8" height="9.4"/>
		<rect id="Rectangle_268" x="-268.1" y="-91.3" class="st2" width="32.8" height="9.4"/>
		<rect id="Rectangle_269" x="-268.1" y="-71.1" class="st2" width="32.8" height="9.4"/>
		<rect id="Rectangle_270" x="-268.1" y="-50.9" class="st2" width="32.8" height="9.4"/>
	</g>
	<g id="Group_2295" transform="translate(370.246 31.234)">
		<rect id="Rectangle_271" x="-295.7" y="-200.7" class="st2" width="32.8" height="138.4"/>
		<rect id="Rectangle_272" x="-288.3" y="-200.7" class="st3" width="32.8" height="138.4"/>
		<rect id="Rectangle_273" x="-288.3" y="-200.8" class="st2" width="32.8" height="8"/>
		<rect id="Rectangle_274" x="-288.3" y="-183.4" class="st2" width="32.8" height="8"/>
		<rect id="Rectangle_275" x="-288.3" y="-166.1" class="st2" width="32.8" height="8"/>
		<rect id="Rectangle_276" x="-288.3" y="-148.8" class="st2" width="32.8" height="8"/>
		<rect id="Rectangle_277" x="-288.3" y="-131.4" class="st2" width="32.8" height="8"/>
		<rect id="Rectangle_278" x="-288.3" y="-114.1" class="st2" width="32.8" height="8"/>
		<rect id="Rectangle_279" x="-288.3" y="-96.7" class="st2" width="32.8" height="8"/>
		<rect id="Rectangle_280" x="-288.3" y="-79.3" class="st2" width="32.8" height="8"/>
	</g>
	<rect id="Rectangle_281" x="4.6" y="-36" class="st4" width="13.7" height="20.2"/>
	<path id="Path_2828" class="st3" d="M8.8-63.6v56.2h-145.3h-1l-37.1-0.4c0-0.1-0.1-0.1-0.1-0.2c-0.1-0.1-0.1-0.2-0.2-0.4
		c0-0.1-0.1-0.1-0.1-0.1c-0.1-0.2-0.2-0.4-0.4-0.7c-0.1-0.3-0.4-0.7-0.6-1.1l0,0c-0.8-1.5-1.8-3.5-3-6.1c-0.4-0.8-0.8-1.8-1.2-2.7
		c-0.1-0.4-0.4-0.7-0.5-1.2l0,0c-0.1-0.4-0.4-0.7-0.5-1.2v-0.1c-0.1-0.3-0.2-0.5-0.4-0.8c-0.1-0.3-0.2-0.6-0.4-0.9
		c-0.6-1.5-1.2-3.1-1.9-4.8c0-0.1,0-0.1-0.1-0.1l0,0c-0.4-1.1-0.8-2.3-1.2-3.4c-0.2-0.7-0.4-1.3-0.6-2c0-0.1,0-0.1-0.1-0.1
		c-0.1-0.3-0.2-0.6-0.3-0.9c-0.1-0.2-0.1-0.5-0.2-0.7c-0.1-0.5-0.3-1-0.5-1.6c-0.2-0.7-0.4-1.4-0.6-2.1c-0.3-0.9-0.5-1.9-0.8-2.9
		c-0.1-0.3-0.1-0.6-0.2-0.9c-0.2-0.9-0.4-1.8-0.6-2.7c-0.1-0.3-0.1-0.6-0.2-0.9c-0.1-0.2-0.1-0.4-0.1-0.6c-0.4-1.5-0.6-2.9-0.9-4.5
		c-0.3-1.7-0.6-3.4-0.9-5c-0.2-1.6-0.4-3.2-0.6-4.8c-0.2-1.5-0.4-3.1-0.4-4.7c-0.3-3.7-0.4-7.5-0.4-11.3c0.1-6.9,0.9-13.9,2.3-20.7
		c0.1-0.2,0.1-0.5,0.1-0.7c0.4-1.7,0.8-3.4,1.2-5c0.4-1.2,0.7-2.6,1.2-3.8c0.3-0.9,0.6-1.8,0.9-2.8c0.7-2.1,1.6-4.2,2.5-6.3h0.8
		v-1.8c5.6-11.9,13.2-22.6,22.7-31.7c0.2-0.2,0.4-0.4,0.6-0.6h0.6v21.5h18.8v-35.1h20.7v23h4.8v-27.2h20.7v50.9h26.2v29.7h10v7.5
		H-36v-12.9h12.8v-35h15.9v64.6L8.8-63.6z"/>
	<rect id="Rectangle_282" x="-115.4" y="-165" class="st2" width="20.8" height="5.2"/>
	<rect id="Rectangle_283" x="-115.4" y="-155.2" class="st2" width="20.8" height="5.2"/>
	<rect id="Rectangle_284" x="-115.4" y="-146.5" class="st2" width="20.8" height="5.2"/>
	<rect id="Rectangle_285" x="-140.8" y="-146.5" class="st2" width="20.8" height="5.2"/>
	<rect id="Rectangle_286" x="-140.8" y="-155.2" class="st2" width="20.8" height="5.2"/>
	<rect id="Rectangle_287" x="-140.8" y="-164" class="st2" width="20.8" height="5.2"/>
	<rect id="Rectangle_288" x="-140.8" y="-138" class="st2" width="46.2" height="5.2"/>
	<rect id="Rectangle_289" x="-140.8" y="-129.5" class="st2" width="46.2" height="5.2"/>
	<rect id="Rectangle_290" x="-23.3" y="-128.2" class="st2" width="16.1" height="8"/>
	<rect id="Rectangle_291" x="-23.3" y="-116.3" class="st2" width="16.1" height="8"/>
	<rect id="Rectangle_292" x="-23.3" y="-104.4" class="st2" width="16.1" height="8"/>
	<rect id="Rectangle_293" x="-23.3" y="-92" class="st2" width="16.1" height="8"/>
	<rect id="Rectangle_294" x="-23.3" y="-79.8" class="st2" width="16.1" height="8"/>
	<rect id="Rectangle_295" x="-23.3" y="-67.8" class="st2" width="16.1" height="8"/>
	<rect id="Rectangle_296" x="-23.3" y="-55.1" class="st2" width="16.1" height="8"/>
	<rect id="Rectangle_297" x="-140.8" y="-121.2" class="st2" width="46.2" height="3.3"/>
	<rect id="Rectangle_298" x="-29" y="-128.2" class="st2" width="5.9" height="35"/>
	<rect id="Rectangle_299" x="-48" y="-93.2" class="st2" width="12" height="12.9"/>
	<path id="Path_2829" class="st2" d="M-140.8-164v5.2v20.8v5.2v3.8h-4.1v-34.6l0.6-0.4H-140.8L-140.8-164z"/>
	<rect id="Rectangle_300" x="-117.9" y="-168.5" class="st2" width="2.5" height="27.1"/>
	<g id="Group_2339" transform="translate(3.16 109.392)" class="st5">
		<g id="Group_2302" transform="translate(3.573 0)">
			<g id="Group_2298" transform="translate(75.632)">
				<g id="Group_2296" transform="translate(43.773)">
					<rect id="Rectangle_301" x="-202.3" y="-221.8" class="st2" width="3.5" height="5"/>
					<rect id="Rectangle_302" x="-208.9" y="-221.8" class="st2" width="3.5" height="5"/>
					<rect id="Rectangle_303" x="-215.3" y="-221.8" class="st2" width="3.5" height="5"/>
					<rect id="Rectangle_304" x="-221.5" y="-221.8" class="st2" width="3.5" height="5"/>
					<rect id="Rectangle_305" x="-227.7" y="-221.8" class="st2" width="3.5" height="5"/>
				</g>
				<g id="Group_2297" transform="translate(0)">
					<rect id="Rectangle_306" x="-190.1" y="-221.8" class="st2" width="3.5" height="5"/>
					<rect id="Rectangle_307" x="-196.7" y="-221.8" class="st2" width="3.5" height="5"/>
					<rect id="Rectangle_308" x="-203.1" y="-221.8" class="st2" width="3.5" height="5"/>
					<rect id="Rectangle_309" x="-209.3" y="-221.8" class="st2" width="3.5" height="5"/>
					<rect id="Rectangle_310" x="-215.5" y="-221.8" class="st2" width="3.5" height="5"/>
				</g>
			</g>
			<g id="Group_2301">
				<g id="Group_2299" transform="translate(31.594)">
					<rect id="Rectangle_311" x="-177.9" y="-221.8" class="st2" width="3.5" height="5"/>
					<rect id="Rectangle_312" x="-184.4" y="-221.8" class="st2" width="3.5" height="5"/>
					<rect id="Rectangle_313" x="-190.9" y="-221.8" class="st2" width="3.5" height="5"/>
					<rect id="Rectangle_314" x="-197" y="-221.8" class="st2" width="3.5" height="5"/>
					<rect id="Rectangle_315" x="-203.2" y="-221.8" class="st2" width="3.5" height="5"/>
				</g>
				<g id="Group_2300">
					<rect id="Rectangle_316" x="-177.9" y="-221.8" class="st2" width="3.5" height="5"/>
					<rect id="Rectangle_317" x="-184.4" y="-221.8" class="st2" width="3.5" height="5"/>
					<rect id="Rectangle_318" x="-190.9" y="-221.8" class="st2" width="3.5" height="5"/>
					<path id="Path_2830" class="st2" d="M-193.5-219.6v2.8h-0.9C-194.1-217.7-193.8-218.7-193.5-219.6z"/>
				</g>
			</g>
		</g>
		<g id="Group_2309" transform="translate(0.262 12.117)">
			<g id="Group_2305" transform="translate(78.943 0.001)">
				<g id="Group_2303" transform="translate(43.773 0)">
					<rect id="Rectangle_319" x="-202.3" y="-225.1" class="st2" width="3.5" height="5"/>
					<rect id="Rectangle_320" x="-208.9" y="-225.1" class="st2" width="3.5" height="5"/>
					<rect id="Rectangle_321" x="-215.3" y="-225.1" class="st2" width="3.5" height="5"/>
					<rect id="Rectangle_322" x="-221.5" y="-225.1" class="st2" width="3.5" height="5"/>
					<rect id="Rectangle_323" x="-227.7" y="-225.1" class="st2" width="3.5" height="5"/>
				</g>
				<g id="Group_2304" transform="translate(0 0)">
					<rect id="Rectangle_324" x="-190.1" y="-225.1" class="st2" width="3.5" height="5"/>
					<rect id="Rectangle_325" x="-196.7" y="-225.1" class="st2" width="3.5" height="5"/>
					<rect id="Rectangle_326" x="-203.1" y="-225.1" class="st2" width="3.5" height="5"/>
					<rect id="Rectangle_327" x="-209.3" y="-225.1" class="st2" width="3.5" height="5"/>
					<rect id="Rectangle_328" x="-215.5" y="-225.1" class="st2" width="3.5" height="5"/>
				</g>
			</g>
			<g id="Group_2308">
				<g id="Group_2306" transform="translate(34.906 0.001)">
					<rect id="Rectangle_329" x="-177.9" y="-225.1" class="st2" width="3.5" height="5"/>
					<rect id="Rectangle_330" x="-184.4" y="-225.1" class="st2" width="3.5" height="5"/>
					<rect id="Rectangle_331" x="-190.9" y="-225.1" class="st2" width="3.5" height="5"/>
					<rect id="Rectangle_332" x="-197" y="-225.1" class="st2" width="3.5" height="5"/>
					<rect id="Rectangle_333" x="-203.2" y="-225.1" class="st2" width="3.5" height="5"/>
				</g>
				<g id="Group_2307">
					<rect id="Rectangle_334" x="-174.6" y="-225.1" class="st2" width="3.5" height="5"/>
					<rect id="Rectangle_335" x="-181.1" y="-225.1" class="st2" width="3.5" height="5"/>
					<rect id="Rectangle_336" x="-187.6" y="-225.1" class="st2" width="3.5" height="5"/>
					<path id="Path_2831" class="st2" d="M-190.2-225.1v5h-3.3c0.4-1.7,0.8-3.4,1.2-5H-190.2z"/>
				</g>
			</g>
		</g>
		<g id="Group_2316" transform="translate(0 24.049)">
			<g id="Group_2312" transform="translate(79.204)">
				<g id="Group_2310" transform="translate(43.773)">
					<rect id="Rectangle_337" x="-202.3" y="-228.3" class="st2" width="3.5" height="5"/>
					<rect id="Rectangle_338" x="-208.9" y="-228.3" class="st2" width="3.5" height="5"/>
					<rect id="Rectangle_339" x="-215.3" y="-228.3" class="st2" width="3.5" height="5"/>
					<rect id="Rectangle_340" x="-221.5" y="-228.3" class="st2" width="3.5" height="5"/>
					<rect id="Rectangle_341" x="-227.7" y="-228.3" class="st2" width="3.5" height="5"/>
				</g>
				<g id="Group_2311" transform="translate(0)">
					<rect id="Rectangle_342" x="-190.1" y="-228.3" class="st2" width="3.5" height="5"/>
					<rect id="Rectangle_343" x="-196.7" y="-228.3" class="st2" width="3.5" height="5"/>
					<rect id="Rectangle_344" x="-203.1" y="-228.3" class="st2" width="3.5" height="5"/>
					<rect id="Rectangle_345" x="-209.3" y="-228.3" class="st2" width="3.5" height="5"/>
					<rect id="Rectangle_346" x="-215.5" y="-228.3" class="st2" width="3.5" height="5"/>
				</g>
			</g>
			<g id="Group_2315">
				<g id="Group_2313" transform="translate(35.167)">
					<rect id="Rectangle_347" x="-177.9" y="-228.3" class="st2" width="3.5" height="5"/>
					<rect id="Rectangle_348" x="-184.4" y="-228.3" class="st2" width="3.5" height="5"/>
					<rect id="Rectangle_349" x="-190.9" y="-228.3" class="st2" width="3.5" height="5"/>
					<rect id="Rectangle_350" x="-197" y="-228.3" class="st2" width="3.5" height="5"/>
					<rect id="Rectangle_351" x="-203.2" y="-228.3" class="st2" width="3.5" height="5"/>
				</g>
				<g id="Group_2314">
					<rect id="Rectangle_352" x="-174.3" y="-228.3" class="st2" width="3.5" height="5"/>
					<rect id="Rectangle_353" x="-180.9" y="-228.3" class="st2" width="3.5" height="5"/>
					<rect id="Rectangle_354" x="-187.3" y="-228.3" class="st2" width="3.5" height="5"/>
					<rect id="Rectangle_355" x="-193.4" y="-228.3" class="st2" width="3.5" height="5"/>
				</g>
			</g>
		</g>
		<g id="Group_2338" transform="translate(0 36.727)">
			<g id="Group_2323" transform="translate(0 0)">
				<g id="Group_2319" transform="translate(79.204)">
					<g id="Group_2317" transform="translate(43.773)">
						<rect id="Rectangle_356" x="-202.3" y="-231.7" class="st2" width="3.5" height="5"/>
						<rect id="Rectangle_357" x="-208.9" y="-231.7" class="st2" width="3.5" height="5"/>
						<rect id="Rectangle_358" x="-215.3" y="-231.7" class="st2" width="3.5" height="5"/>
						<rect id="Rectangle_359" x="-221.5" y="-231.7" class="st2" width="3.5" height="5"/>
						<rect id="Rectangle_360" x="-227.7" y="-231.7" class="st2" width="3.5" height="5"/>
					</g>
					<g id="Group_2318" transform="translate(0)">
						<rect id="Rectangle_361" x="-190.1" y="-231.7" class="st2" width="3.5" height="5"/>
						<rect id="Rectangle_362" x="-196.7" y="-231.7" class="st2" width="3.5" height="5"/>
						<rect id="Rectangle_363" x="-203.1" y="-231.7" class="st2" width="3.5" height="5"/>
						<rect id="Rectangle_364" x="-209.3" y="-231.7" class="st2" width="3.5" height="5"/>
						<rect id="Rectangle_365" x="-215.5" y="-231.7" class="st2" width="3.5" height="5"/>
					</g>
				</g>
				<g id="Group_2322">
					<g id="Group_2320" transform="translate(35.167)">
						<rect id="Rectangle_366" x="-177.9" y="-231.7" class="st2" width="3.5" height="5"/>
						<rect id="Rectangle_367" x="-184.4" y="-231.7" class="st2" width="3.5" height="5"/>
						<rect id="Rectangle_368" x="-190.9" y="-231.7" class="st2" width="3.5" height="5"/>
						<rect id="Rectangle_369" x="-197" y="-231.7" class="st2" width="3.5" height="5"/>
						<rect id="Rectangle_370" x="-203.2" y="-231.7" class="st2" width="3.5" height="5"/>
					</g>
					<g id="Group_2321">
						<rect id="Rectangle_371" x="-174.3" y="-231.7" class="st2" width="3.5" height="5"/>
						<rect id="Rectangle_372" x="-180.9" y="-231.7" class="st2" width="3.5" height="5"/>
						<rect id="Rectangle_373" x="-187.3" y="-231.7" class="st2" width="3.5" height="5"/>
						<rect id="Rectangle_374" x="-193.4" y="-231.7" class="st2" width="3.5" height="5"/>
					</g>
				</g>
			</g>
			<g id="Group_2330" transform="translate(0 12.117)">
				<g id="Group_2326" transform="translate(79.204 0)">
					<g id="Group_2324" transform="translate(43.773)">
						<rect id="Rectangle_375" x="-202.3" y="-235" class="st2" width="3.5" height="5"/>
						<rect id="Rectangle_376" x="-208.9" y="-235" class="st2" width="3.5" height="5"/>
						<rect id="Rectangle_377" x="-215.3" y="-235" class="st2" width="3.5" height="5"/>
						<rect id="Rectangle_378" x="-221.5" y="-235" class="st2" width="3.5" height="5"/>
						<rect id="Rectangle_379" x="-227.7" y="-235" class="st2" width="3.5" height="5"/>
					</g>
					<g id="Group_2325" transform="translate(0)">
						<rect id="Rectangle_380" x="-190.1" y="-235" class="st2" width="3.5" height="5"/>
						<rect id="Rectangle_381" x="-196.7" y="-235" class="st2" width="3.5" height="5"/>
						<rect id="Rectangle_382" x="-203.1" y="-235" class="st2" width="3.5" height="5"/>
						<rect id="Rectangle_383" x="-209.3" y="-235" class="st2" width="3.5" height="5"/>
						<rect id="Rectangle_384" x="-215.5" y="-235" class="st2" width="3.5" height="5"/>
					</g>
				</g>
				<g id="Group_2329" transform="translate(0 0)">
					<g id="Group_2327" transform="translate(35.167)">
						<rect id="Rectangle_385" x="-177.9" y="-235" class="st2" width="3.5" height="5"/>
						<rect id="Rectangle_386" x="-184.4" y="-235" class="st2" width="3.5" height="5"/>
						<rect id="Rectangle_387" x="-190.9" y="-235" class="st2" width="3.5" height="5"/>
						<rect id="Rectangle_388" x="-197" y="-235" class="st2" width="3.5" height="5"/>
						<rect id="Rectangle_389" x="-203.2" y="-235" class="st2" width="3.5" height="5"/>
					</g>
					<g id="Group_2328">
						<rect id="Rectangle_390" x="-174.3" y="-235" class="st2" width="3.5" height="5"/>
						<rect id="Rectangle_391" x="-180.9" y="-235" class="st2" width="3.5" height="5"/>
						<rect id="Rectangle_392" x="-187.3" y="-235" class="st2" width="3.5" height="5"/>
						<rect id="Rectangle_393" x="-193.4" y="-235" class="st2" width="3.5" height="5"/>
					</g>
				</g>
			</g>
			<g id="Group_2337" transform="translate(0 24.049)">
				<g id="Group_2333" transform="translate(79.204 0)">
					<g id="Group_2331" transform="translate(43.773)">
						<rect id="Rectangle_394" x="-202.3" y="-238.2" class="st2" width="3.5" height="5"/>
						<rect id="Rectangle_395" x="-208.9" y="-238.2" class="st2" width="3.5" height="5"/>
						<rect id="Rectangle_396" x="-215.3" y="-238.2" class="st2" width="3.5" height="5"/>
						<rect id="Rectangle_397" x="-221.5" y="-238.2" class="st2" width="3.5" height="5"/>
						<rect id="Rectangle_398" x="-227.7" y="-238.2" class="st2" width="3.5" height="5"/>
					</g>
					<g id="Group_2332" transform="translate(0)">
						<rect id="Rectangle_399" x="-190.1" y="-238.2" class="st2" width="3.5" height="5"/>
						<rect id="Rectangle_400" x="-196.7" y="-238.2" class="st2" width="3.5" height="5"/>
						<rect id="Rectangle_401" x="-203.1" y="-238.2" class="st2" width="3.5" height="5"/>
						<rect id="Rectangle_402" x="-209.3" y="-238.2" class="st2" width="3.5" height="5"/>
						<rect id="Rectangle_403" x="-215.5" y="-238.2" class="st2" width="3.5" height="5"/>
					</g>
				</g>
				<g id="Group_2336" transform="translate(0 0)">
					<g id="Group_2334" transform="translate(35.167)">
						<rect id="Rectangle_404" x="-177.9" y="-238.2" class="st2" width="3.5" height="5"/>
						<rect id="Rectangle_405" x="-184.4" y="-238.2" class="st2" width="3.5" height="5"/>
						<rect id="Rectangle_406" x="-190.9" y="-238.2" class="st2" width="3.5" height="5"/>
						<rect id="Rectangle_407" x="-197" y="-238.2" class="st2" width="3.5" height="5"/>
						<rect id="Rectangle_408" x="-203.2" y="-238.2" class="st2" width="3.5" height="5"/>
					</g>
					<g id="Group_2335">
						<rect id="Rectangle_409" x="-174.3" y="-238.2" class="st2" width="3.5" height="5"/>
						<rect id="Rectangle_410" x="-180.9" y="-238.2" class="st2" width="3.5" height="5"/>
						<rect id="Rectangle_411" x="-187.3" y="-238.2" class="st2" width="3.5" height="5"/>
						<rect id="Rectangle_412" x="-193.4" y="-238.2" class="st2" width="3.5" height="5"/>
					</g>
				</g>
			</g>
		</g>
	</g>
	<rect id="Rectangle_413" x="-129.5" y="-52.3" class="st2" width="81.5" height="44.5"/>
	<rect id="Rectangle_414" x="-67.7" y="-30" class="st2" width="81.5" height="22.3"/>
	<path id="Path_2832" class="st2" d="M-136-45.4v37.6h-38.5c0-0.1-0.1-0.1-0.1-0.2c-0.1-0.1-0.1-0.2-0.2-0.4c0-0.1-0.1-0.1-0.1-0.1
		c-0.1-0.2-0.2-0.4-0.4-0.7c-0.1-0.3-0.4-0.7-0.6-1.1l0,0c-0.8-1.5-1.8-3.5-3-6.1c-0.4-0.8-0.8-1.8-1.2-2.7
		c-0.1-0.4-0.4-0.7-0.5-1.2l0,0c-0.1-0.4-0.4-0.7-0.5-1.2v-0.1c-0.1-0.3-0.2-0.5-0.4-0.8c-0.1-0.3-0.2-0.6-0.4-0.9
		c-0.6-1.5-1.2-3.1-1.9-4.8c0-0.1,0-0.1-0.1-0.1l0,0c-0.4-1.1-0.8-2.3-1.2-3.4c-0.2-0.7-0.4-1.3-0.6-2c0-0.1,0-0.1-0.1-0.1
		c-0.1-0.3-0.2-0.6-0.3-0.9c-0.1-0.2-0.1-0.5-0.2-0.7c-0.1-0.5-0.3-1-0.5-1.6c-0.2-0.7-0.4-1.4-0.6-2.1c-0.3-0.9-0.5-1.9-0.8-2.9
		c-0.1-0.3-0.1-0.6-0.2-0.9c-0.2-0.9-0.4-1.8-0.6-2.7L-136-45.4z"/>
	<rect id="Rectangle_415" x="-68.7" y="-47.1" class="st3" width="15.2" height="8.3"/>
	<rect id="Rectangle_416" x="-88.1" y="-47.1" class="st3" width="15.2" height="8.3"/>
	<rect id="Rectangle_417" x="-107.3" y="-47.1" class="st3" width="15.2" height="8.3"/>
	<rect id="Rectangle_418" x="-126" y="-47.1" class="st3" width="15.2" height="8.3"/>
	<rect id="Rectangle_419" x="-136.5" y="-52.3" class="st6" width="7.8" height="44.9"/>
	<rect id="Rectangle_420" x="-10.9" y="-131.7" class="st4" width="0.4" height="3.5"/>
	<rect id="Rectangle_421" x="-26.1" y="-131.7" class="st4" width="0.4" height="3.5"/>
	<path id="Path_2833" class="st3" d="M-191.7-61.1c0.2,1.6,0.4,3.2,0.6,4.8c0.3,1.7,0.6,3.4,0.9,5c0.3,1.5,0.6,3,0.9,4.5
		c0.1,0.2,0.1,0.4,0.1,0.6c0.1,0.3,0.1,0.6,0.2,0.9c0.2,0.9,0.4,1.8,0.6,2.7c0.1,0.3,0.1,0.6,0.2,0.9c0.3,1,0.5,2,0.8,2.9
		c0.2,0.7,0.4,1.4,0.6,2.1c0.1,0.5,0.3,1.1,0.5,1.6c0.1,0.2,0.1,0.5,0.2,0.7c0.1,0.3,0.2,0.6,0.3,0.9c0,0.1,0,0.1,0.1,0.1
		c0.2,0.7,0.4,1.3,0.6,2c0.4,1.2,0.8,2.3,1.2,3.4l0,0c0,0.1,0,0.1,0.1,0.1c0.6,1.7,1.2,3.3,1.9,4.8c0.1,0.3,0.2,0.6,0.4,0.9
		s0.2,0.6,0.4,0.8v0.1V-61L-191.7-61.1z"/>
	<g id="Group_2343" transform="translate(3.292 193.15)">
		<path id="Path_2834" class="st3" d="M-184.4-239.4v24.9v-0.1c-0.1-0.3-0.2-0.5-0.4-0.8s-0.2-0.6-0.4-0.9c-0.6-1.5-1.2-3.1-1.9-4.8
			c0-0.1,0-0.1-0.1-0.1l0,0c-0.4-1.1-0.8-2.3-1.2-3.4c-0.2-0.7-0.4-1.3-0.6-2c0-0.1,0-0.1-0.1-0.1c-0.1-0.3-0.2-0.6-0.3-0.9
			c-0.1-0.2-0.1-0.5-0.2-0.7c-0.1-0.5-0.3-1-0.5-1.6c-0.2-0.7-0.4-1.4-0.6-2.1c-0.3-0.9-0.5-1.9-0.8-2.9c-0.1-0.3-0.1-0.6-0.2-0.9
			c-0.2-0.9-0.4-1.8-0.6-2.7c-0.1-0.3-0.1-0.6-0.2-0.9H-184.4z"/>
		<path id="Path_2835" class="st2" d="M-184.4-244.4v12.4h-6.1c-0.3-0.9-0.5-1.9-0.8-2.9c-0.1-0.3-0.1-0.6-0.2-0.9
			c-0.2-0.9-0.4-1.8-0.6-2.7c-0.1-0.3-0.1-0.6-0.2-0.9c-0.1-0.2-0.1-0.4-0.1-0.6c-0.4-1.5-0.6-2.9-0.9-4.5L-184.4-244.4
			L-184.4-244.4z"/>
		<g id="Group_2342" transform="translate(5.607 21.971)">
			<g id="Group_2341">
				<g id="Group_2340">
					<path id="Path_2836" class="st2" d="M-193.8-250.3v3.7c-0.2-0.7-0.4-1.3-0.6-2c0-0.1,0-0.1-0.1-0.1c-0.1-0.3-0.2-0.6-0.3-0.9
						c-0.1-0.2-0.1-0.5-0.2-0.7H-193.8z"/>
				</g>
			</g>
		</g>
		<rect id="Rectangle_422" x="-191.1" y="-240.9" class="st6" width="2.4" height="4.2"/>
	</g>
	<g id="Group_2354" transform="translate(264.485 193.151)">
		<rect id="Rectangle_423" x="-266.2" y="-239.4" class="st3" width="55.9" height="38.1"/>
		<rect id="Rectangle_424" x="-266.2" y="-244.4" class="st2" width="55.9" height="12.3"/>
		<g id="Group_2353" transform="translate(3.832 21.969)">
			<g id="Group_2346" transform="translate(0 0)">
				<g id="Group_2344" transform="translate(35.777)">
					<rect id="Rectangle_425" x="-256.5" y="-250.3" class="st2" width="2.9" height="4.1"/>
					<rect id="Rectangle_426" x="-261.9" y="-250.3" class="st2" width="2.9" height="4.1"/>
					<rect id="Rectangle_427" x="-267.2" y="-250.3" class="st2" width="2.9" height="4.1"/>
					<rect id="Rectangle_428" x="-272.2" y="-250.3" class="st2" width="2.9" height="4.1"/>
					<rect id="Rectangle_429" x="-277.2" y="-250.3" class="st2" width="2.9" height="4.1"/>
				</g>
				<g id="Group_2345">
					<rect id="Rectangle_430" x="-246.6" y="-250.3" class="st2" width="2.9" height="4.1"/>
					<rect id="Rectangle_431" x="-252" y="-250.3" class="st2" width="2.9" height="4.1"/>
					<rect id="Rectangle_432" x="-257.2" y="-250.3" class="st2" width="2.9" height="4.1"/>
					<rect id="Rectangle_433" x="-262.2" y="-250.3" class="st2" width="2.9" height="4.1"/>
					<rect id="Rectangle_434" x="-267.3" y="-250.3" class="st2" width="2.9" height="4.1"/>
				</g>
			</g>
			<g id="Group_2349" transform="translate(0 9.904)">
				<g id="Group_2347" transform="translate(35.777 0)">
					<rect id="Rectangle_435" x="-256.5" y="-253" class="st2" width="2.9" height="4.1"/>
					<rect id="Rectangle_436" x="-261.9" y="-253" class="st2" width="2.9" height="4.1"/>
					<rect id="Rectangle_437" x="-267.2" y="-253" class="st2" width="2.9" height="4.1"/>
					<rect id="Rectangle_438" x="-272.2" y="-253" class="st2" width="2.9" height="4.1"/>
					<rect id="Rectangle_439" x="-277.2" y="-253" class="st2" width="2.9" height="4.1"/>
				</g>
				<g id="Group_2348" transform="translate(0 0)">
					<rect id="Rectangle_440" x="-246.6" y="-253" class="st2" width="2.9" height="4.1"/>
					<rect id="Rectangle_441" x="-252" y="-253" class="st2" width="2.9" height="4.1"/>
					<rect id="Rectangle_442" x="-257.2" y="-253" class="st2" width="2.9" height="4.1"/>
					<rect id="Rectangle_443" x="-262.2" y="-253" class="st2" width="2.9" height="4.1"/>
					<rect id="Rectangle_444" x="-267.3" y="-253" class="st2" width="2.9" height="4.1"/>
				</g>
			</g>
			<g id="Group_2352" transform="translate(0 19.656)">
				<g id="Group_2350" transform="translate(35.777 0)">
					<rect id="Rectangle_445" x="-256.5" y="-255.6" class="st2" width="2.9" height="4.1"/>
					<rect id="Rectangle_446" x="-261.9" y="-255.6" class="st2" width="2.9" height="4.1"/>
					<rect id="Rectangle_447" x="-267.2" y="-255.6" class="st2" width="2.9" height="4.1"/>
					<rect id="Rectangle_448" x="-272.2" y="-255.6" class="st2" width="2.9" height="4.1"/>
					<rect id="Rectangle_449" x="-277.2" y="-255.6" class="st2" width="2.9" height="4.1"/>
				</g>
				<g id="Group_2351" transform="translate(0 0)">
					<rect id="Rectangle_450" x="-246.6" y="-255.6" class="st2" width="2.9" height="4.1"/>
					<rect id="Rectangle_451" x="-252" y="-255.6" class="st2" width="2.9" height="4.1"/>
					<rect id="Rectangle_452" x="-257.2" y="-255.6" class="st2" width="2.9" height="4.1"/>
					<rect id="Rectangle_453" x="-262.2" y="-255.6" class="st2" width="2.9" height="4.1"/>
					<rect id="Rectangle_454" x="-267.3" y="-255.6" class="st2" width="2.9" height="4.1"/>
				</g>
			</g>
		</g>
		<rect id="Rectangle_455" x="-216.9" y="-240.9" class="st6" width="2.4" height="4.2"/>
		<rect id="Rectangle_456" x="-240.9" y="-240.9" class="st6" width="2.4" height="4.2"/>
		<rect id="Rectangle_457" x="-260" y="-240.9" class="st6" width="2.4" height="4.2"/>
	</g>
	<g id="Group_2365" transform="translate(346.886 193.151)">
		<rect id="Rectangle_458" x="-289.2" y="-239.4" class="st3" width="55.9" height="38.1"/>
		<rect id="Rectangle_459" x="-289.2" y="-244.4" class="st2" width="55.9" height="12.3"/>
		<g id="Group_2364" transform="translate(3.831 21.969)">
			<g id="Group_2357" transform="translate(0 0)">
				<g id="Group_2355" transform="translate(35.777)">
					<rect id="Rectangle_460" x="-279.5" y="-250.3" class="st2" width="2.9" height="4.1"/>
					<rect id="Rectangle_461" x="-284.9" y="-250.3" class="st2" width="2.9" height="4.1"/>
					<rect id="Rectangle_462" x="-290.2" y="-250.3" class="st2" width="2.9" height="4.1"/>
					<rect id="Rectangle_463" x="-295.1" y="-250.3" class="st2" width="2.9" height="4.1"/>
					<rect id="Rectangle_464" x="-300.2" y="-250.3" class="st2" width="2.9" height="4.1"/>
				</g>
				<g id="Group_2356">
					<rect id="Rectangle_465" x="-269.5" y="-250.3" class="st2" width="2.9" height="4.1"/>
					<rect id="Rectangle_466" x="-274.9" y="-250.3" class="st2" width="2.9" height="4.1"/>
					<rect id="Rectangle_467" x="-280.2" y="-250.3" class="st2" width="2.9" height="4.1"/>
					<rect id="Rectangle_468" x="-285.2" y="-250.3" class="st2" width="2.9" height="4.1"/>
					<rect id="Rectangle_469" x="-290.2" y="-250.3" class="st2" width="2.9" height="4.1"/>
				</g>
			</g>
			<g id="Group_2360" transform="translate(0 9.904)">
				<g id="Group_2358" transform="translate(35.777 0)">
					<rect id="Rectangle_470" x="-279.5" y="-253" class="st2" width="2.9" height="4.1"/>
					<rect id="Rectangle_471" x="-284.9" y="-253" class="st2" width="2.9" height="4.1"/>
					<rect id="Rectangle_472" x="-290.2" y="-253" class="st2" width="2.9" height="4.1"/>
					<rect id="Rectangle_473" x="-295.1" y="-253" class="st2" width="2.9" height="4.1"/>
					<rect id="Rectangle_474" x="-300.2" y="-253" class="st2" width="2.9" height="4.1"/>
				</g>
				<g id="Group_2359" transform="translate(0 0)">
					<rect id="Rectangle_475" x="-269.5" y="-253" class="st2" width="2.9" height="4.1"/>
					<rect id="Rectangle_476" x="-274.9" y="-253" class="st2" width="2.9" height="4.1"/>
					<rect id="Rectangle_477" x="-280.2" y="-253" class="st2" width="2.9" height="4.1"/>
					<rect id="Rectangle_478" x="-285.2" y="-253" class="st2" width="2.9" height="4.1"/>
					<rect id="Rectangle_479" x="-290.2" y="-253" class="st2" width="2.9" height="4.1"/>
				</g>
			</g>
			<g id="Group_2363" transform="translate(0 19.656)">
				<g id="Group_2361" transform="translate(35.777 0)">
					<rect id="Rectangle_480" x="-279.5" y="-255.6" class="st2" width="2.9" height="4.1"/>
					<rect id="Rectangle_481" x="-284.9" y="-255.6" class="st2" width="2.9" height="4.1"/>
					<rect id="Rectangle_482" x="-290.2" y="-255.6" class="st2" width="2.9" height="4.1"/>
					<rect id="Rectangle_483" x="-295.1" y="-255.6" class="st2" width="2.9" height="4.1"/>
					<rect id="Rectangle_484" x="-300.2" y="-255.6" class="st2" width="2.9" height="4.1"/>
				</g>
				<g id="Group_2362" transform="translate(0 0)">
					<rect id="Rectangle_485" x="-269.5" y="-255.6" class="st2" width="2.9" height="4.1"/>
					<rect id="Rectangle_486" x="-274.9" y="-255.6" class="st2" width="2.9" height="4.1"/>
					<rect id="Rectangle_487" x="-280.2" y="-255.6" class="st2" width="2.9" height="4.1"/>
					<rect id="Rectangle_488" x="-285.2" y="-255.6" class="st2" width="2.9" height="4.1"/>
					<rect id="Rectangle_489" x="-290.2" y="-255.6" class="st2" width="2.9" height="4.1"/>
				</g>
			</g>
		</g>
		<rect id="Rectangle_490" x="-239.9" y="-240.9" class="st6" width="2.4" height="4.2"/>
		<rect id="Rectangle_491" x="-263.8" y="-240.9" class="st6" width="2.4" height="4.2"/>
		<rect id="Rectangle_492" x="-282.9" y="-240.9" class="st6" width="2.4" height="4.2"/>
	</g>
	<g id="Group_2376" transform="translate(509.166 193.151)">
		<rect id="Rectangle_493" x="-334.4" y="-239.4" class="st3" width="55.9" height="38.1"/>
		<rect id="Rectangle_494" x="-334.4" y="-244.4" class="st2" width="55.9" height="12.3"/>
		<g id="Group_2375" transform="translate(3.832 21.969)">
			<g id="Group_2368" transform="translate(0 0)">
				<g id="Group_2366" transform="translate(35.777)">
					<rect id="Rectangle_495" x="-324.7" y="-250.3" class="st2" width="2.9" height="4.1"/>
					<rect id="Rectangle_496" x="-330.1" y="-250.3" class="st2" width="2.9" height="4.1"/>
					<rect id="Rectangle_497" x="-335.4" y="-250.3" class="st2" width="2.9" height="4.1"/>
					<rect id="Rectangle_498" x="-340.3" y="-250.3" class="st2" width="2.9" height="4.1"/>
					<rect id="Rectangle_499" x="-345.4" y="-250.3" class="st2" width="2.9" height="4.1"/>
				</g>
				<g id="Group_2367">
					<rect id="Rectangle_500" x="-314.7" y="-250.3" class="st2" width="2.9" height="4.1"/>
					<rect id="Rectangle_501" x="-320.1" y="-250.3" class="st2" width="2.9" height="4.1"/>
					<rect id="Rectangle_502" x="-325.4" y="-250.3" class="st2" width="2.9" height="4.1"/>
					<rect id="Rectangle_503" x="-330.4" y="-250.3" class="st2" width="2.9" height="4.1"/>
					<rect id="Rectangle_504" x="-335.4" y="-250.3" class="st2" width="2.9" height="4.1"/>
				</g>
			</g>
			<g id="Group_2371" transform="translate(0 9.904)">
				<g id="Group_2369" transform="translate(35.777 0)">
					<rect id="Rectangle_505" x="-324.7" y="-253" class="st2" width="2.9" height="4.1"/>
					<rect id="Rectangle_506" x="-330.1" y="-253" class="st2" width="2.9" height="4.1"/>
					<rect id="Rectangle_507" x="-335.4" y="-253" class="st2" width="2.9" height="4.1"/>
					<rect id="Rectangle_508" x="-340.3" y="-253" class="st2" width="2.9" height="4.1"/>
					<rect id="Rectangle_509" x="-345.4" y="-253" class="st2" width="2.9" height="4.1"/>
				</g>
				<g id="Group_2370" transform="translate(0 0)">
					<rect id="Rectangle_510" x="-314.7" y="-253" class="st2" width="2.9" height="4.1"/>
					<rect id="Rectangle_511" x="-320.1" y="-253" class="st2" width="2.9" height="4.1"/>
					<rect id="Rectangle_512" x="-325.4" y="-253" class="st2" width="2.9" height="4.1"/>
					<rect id="Rectangle_513" x="-330.4" y="-253" class="st2" width="2.9" height="4.1"/>
					<rect id="Rectangle_514" x="-335.4" y="-253" class="st2" width="2.9" height="4.1"/>
				</g>
			</g>
			<g id="Group_2374" transform="translate(0 19.656)">
				<g id="Group_2372" transform="translate(35.777 0)">
					<rect id="Rectangle_515" x="-324.7" y="-255.6" class="st2" width="2.9" height="4.1"/>
					<rect id="Rectangle_516" x="-330.1" y="-255.6" class="st2" width="2.9" height="4.1"/>
					<rect id="Rectangle_517" x="-335.4" y="-255.6" class="st2" width="2.9" height="4.1"/>
					<rect id="Rectangle_518" x="-340.3" y="-255.6" class="st2" width="2.9" height="4.1"/>
					<rect id="Rectangle_519" x="-345.4" y="-255.6" class="st2" width="2.9" height="4.1"/>
				</g>
				<g id="Group_2373" transform="translate(0 0)">
					<rect id="Rectangle_520" x="-314.7" y="-255.6" class="st2" width="2.9" height="4.1"/>
					<rect id="Rectangle_521" x="-320.1" y="-255.6" class="st2" width="2.9" height="4.1"/>
					<rect id="Rectangle_522" x="-325.4" y="-255.6" class="st2" width="2.9" height="4.1"/>
					<rect id="Rectangle_523" x="-330.4" y="-255.6" class="st2" width="2.9" height="4.1"/>
					<rect id="Rectangle_524" x="-335.4" y="-255.6" class="st2" width="2.9" height="4.1"/>
				</g>
			</g>
		</g>
		<rect id="Rectangle_525" x="-285.1" y="-240.9" class="st6" width="2.4" height="4.2"/>
		<rect id="Rectangle_526" x="-309" y="-240.9" class="st6" width="2.4" height="4.2"/>
		<rect id="Rectangle_527" x="-328.2" y="-240.9" class="st6" width="2.4" height="4.2"/>
	</g>
</g>
<path id="Path_2837" class="st7" d="M477.3,318c0-0.2,0-0.4,0-0.7c0-1.4,0-2.8,0-3.9c-0.1-1.8-0.5-3.4-1.4-5c-0.6-1-1.2-2-2-2.8
	l-2.2-1.8l-7.4-6l-0.1-0.1c0.1-0.1,0.3-0.4,0.4-0.6c0.1-0.4,0.2-0.7,0.2-1.1v-4.3c0-1.3-1.1-2.4-2.4-2.4h-0.7
	c-0.4,0-0.9,0.1-1.2,0.4l-5.1-11c-0.3-1.4-0.6-2.7-1.2-4c-1.4-3.7-5.3-6.2-9.7-6.2h-37.7l0,0l0,0v0.1h-50.1v54.7h6.2
	c0.6,2.8,2.2,4.9,4.3,4.9h2.8c2,0,3.7-2,4.3-4.9h13c0.6,2.8,2.2,4.9,4.3,4.9h2.8c2,0,3.7-2,4.3-4.9h29.2c-0.1-0.6-0.1-1.2-0.1-1.8
	c0-0.1,0-0.1,0-0.1l0.1,1.9h1.4c0.6,2.8,2.2,4.9,4.3,4.9h2.8c2,0,3.7-2,4.3-4.9h21c0.6,2.8,2.2,4.9,4.3,4.9h2.8c2,0,3.8-2.1,4.3-5
	C475.3,322.9,477.3,320.7,477.3,318z"/>
<g id="Group_2384" transform="translate(309.687 372.385)">
	<g id="Group_2378" transform="translate(376.113 75.409)">
		<path id="Path_2838" class="st8" d="M-283.1-216.5v11.3c0,3.5-2.8,6.4-6.3,6.4l0,0h-2c-3.5,0-6.3-2.8-6.3-6.4v-11.3
			c0-1.2,0.3-2.3,0.9-3.3l0,0c1.2-1.9,3.2-3.1,5.3-3.1h2C-285.9-222.9-283.1-220.1-283.1-216.5z"/>
		<path id="Path_2839" class="st9" d="M-283.8-202.4c-1.1,2.1-3.2,3.5-5.6,3.5h-2c-3.5,0-6.3-2.8-6.3-6.4v-11.3
			c0-1.2,0.3-2.3,0.9-3.3C-296.6-219.1-293.9-203.6-283.8-202.4z"/>
	</g>
	<path id="Path_2840" class="st10" d="M-6.2-58.3h30.9v-31.6H-7.6L-6.2-58.3z"/>
	<path id="Path_2841" class="st11" d="M91.3-125.1l-152.1,3.8v-81.2h99.9c9.5,0,18.3,5.4,22.6,14l6.6,12.9L91.3-125.1z"/>
	<g id="Group_2379" transform="translate(263.933 165.711)">
		<path id="Path_2842" class="st12" d="M-258.9-229.2c0,8.6,4.4,18,4.4,18h7.4c6.5,0,11.8-8.1,11.8-18c0-9.9-12.7-18-19.2-18
			C-261.1-247.2-258.9-239.1-258.9-229.2z"/>
		<ellipse id="Ellipse_83" class="st13" cx="-254.6" cy="-229.2" rx="11.8" ry="18"/>
		<ellipse id="Ellipse_84" class="st10" cx="-254.5" cy="-229.2" rx="8.9" ry="13.6"/>
	</g>
	<g id="Group_2380" transform="translate(381.945 165.711)">
		<path id="Path_2843" class="st12" d="M-291.8-229.2c0,8.6,4.4,18,4.4,18h7.4c6.5,0,11.8-8.1,11.8-18c0-9.9-12.7-18-19.2-18
			C-294-247.2-291.8-239.1-291.8-229.2z"/>
		<path id="Path_2844" class="st13" d="M-299.2-229.2c0,10,5.3,18,11.8,18s11.8-8.1,11.8-18c0-9.9-5.3-18-11.8-18
			C-294-247.2-299.2-239.1-299.2-229.2z"/>
		<path id="Path_2845" class="st10" d="M-296.2-229.2c0,7.5,4,13.6,8.9,13.6s8.9-6.1,8.9-13.6s-4-13.6-8.9-13.6
			S-296.2-236.7-296.2-229.2z"/>
	</g>
	<g id="Group_2381" transform="translate(110.942 165.711)">
		<path id="Path_2846" class="st12" d="M-216.3-229.2c0,8.6,4.4,18,4.4,18h7.4c6.5,0,11.8-8.1,11.8-18c0-9.9-12.7-18-19.2-18
			S-216.3-239.1-216.3-229.2z"/>
		<path id="Path_2847" class="st13" d="M-223.8-229.2c0,10,5.3,18,11.8,18s11.8-8.1,11.8-18c0-9.9-5.3-18-11.8-18
			S-223.8-239.1-223.8-229.2z"/>
		<path id="Path_2848" class="st10" d="M-220.7-229.2c0,7.5,4,13.6,8.9,13.6c4.9,0,8.9-6.1,8.9-13.6s-4-13.6-8.9-13.6
			C-216.7-242.8-220.7-236.7-220.7-229.2z"/>
	</g>
	<path id="Path_2849" class="st11" d="M125.4-72c0,7.5-6,13.7-13.4,13.7l0,0H24.8c0.3-1.5,0.4-3.1,0.4-4.6
		c0-11.7-6.9-21.2-15.4-21.2S-5.6-74.6-5.6-62.9c0,1.5,0.1,3.1,0.4,4.6h-51.2c0,0-2-23-1.8-34.6c0.2-10.1,0.2-29.7-0.4-34.6
		c0-0.7,49.1-0.8,61.5-0.9c1.7,0,2.7,0,2.8,0l0.1,0.1l0.2,0.1c2.3,1.6,15.1,10.7,23.1,16.1c7,4.7,58.8,6.6,79.1,7.2
		c5.1,0.1,8.2,0.2,8.2,0.2c2,2.3,3.8,4.7,5.3,7.5c2.2,3.9,3.5,8.5,3.6,13c0,3.1,0,6.8,0,10.4C125.4-73.2,125.4-72.5,125.4-72z"/>
	<path id="Path_2850" class="st14" d="M79.1-128.4H10.8c-1.6,0-3-0.9-3.7-2.4l-16.9-38.1c-0.4-0.9,0-2,0.9-2.5
		c0.2-0.1,0.5-0.1,0.7-0.1h72.1c1.6,0,3,0.9,3.7,2.4L79.7-141l3,7c0.9,2-0.1,4.5-2.1,5.3C80.2-128.4,79.6-128.4,79.1-128.4z"/>
	<path id="Path_2851" class="st8" d="M47.2-73.8c0,1.2-0.1,2.3-0.1,3.3C46.6-63.9,40-58.4,40-58.4H24.7c0.9-5.2,0.2-10.6-1.8-15.5
		C20.2-80,15.3-84.2,9.6-84.2C4-84.2-0.9-80.1-3.7-73.9c-2,4.9-2.7,10.2-1.8,15.5h-55.2v-144.2h44.4v28.6c0,0,13.3,31.6,19.3,45.6
		c1.5,3.5,2.5,5.8,2.8,6.4c1.3,2.6,32.2,18.4,37.4,23.1C46-96.3,47.4-82.8,47.2-73.8z"/>
	<path id="Path_2852" class="st14" d="M-15.8-164.7l14.6,36.3h-25c0,0-5.1-0.9-5.8-11.5c-0.7-11.3-0.7-30.8-0.7-30.8l11-0.1
		C-17.6-170.1-17-167.7-15.8-164.7z"/>
	<path id="Path_2853" class="st11" d="M116.5-104.7h-81L5.9-128.2l-0.1-0.1h81.7l23.2,18.9L116.5-104.7z"/>
	<path id="Path_2854" class="st2" d="M121.8-97.2c-0.4,0.7-1,1.2-1.7,1.4l-11.3,2.1c-0.9,0.2-1.7-1.5-1.4-3.2l1.1-7.7v-0.2l0.2-1.6
		c0.2-1.4,0.8-2.4,1.5-2.7l0.6-0.2l5.8,4.7C118.5-102.4,120.3-99.9,121.8-97.2z"/>
	<path id="Path_2855" class="st8" d="M46-90.8l-7.3-0.7c-2.5-0.2-4.6-2.2-5.1-4.7l-1.7-9.4c-0.1-0.1-0.1-0.3,0-0.4
		c5.2,3.1,9.6,5.8,11.3,7.2C44.4-97.7,45.3-94.7,46-90.8z"/>
	<path id="Path_2856" class="st2" d="M59.9-89.4l-13.8-1.4l0,0l-7.3-0.7c-2.5-0.2-4.6-2.2-5.1-4.7l-1.7-9.4c-0.1-0.1-0.1-0.3,0-0.4
		l0,0c-0.1-1.8,1.3-3.1,3-3.2c0.2,0,0.5,0,0.7,0.1l21.6,4.5c1.4,0.3,2.5,1.3,2.8,2.7l2.5,9.5c0.4,1.4-0.4,2.8-1.8,3.1
		C60.5-89.4,60.2-89.4,59.9-89.4z"/>
	<path id="Path_2857" class="st11" d="M68.2-175.7h-84.4c-0.4-4-1.2-7.9-2.5-11.7c-1.9-5.5-5.1-11.7-10.8-15.2h69
		c11.3,0,21.2,6.1,25.2,15.2c0.2,0.4,0.4,0.7,0.5,1.1C66.5-182.9,67.5-179.3,68.2-175.7z"/>
	<path id="Path_2858" class="st14" d="M46-90.8l-7.4-0.7c-2.5-0.2-4.6-2.2-5.1-4.7l-1.7-9.4c-0.1-0.1-0.1-0.3,0-0.4
		c5.2,3.1,9.6,5.8,11.3,7.3C44.4-97.7,45.3-94.7,46-90.8z"/>
	<path id="Path_2859" class="st9" d="M125.4-72c0,7.5-6.3,13.7-14.1,13.7H24.8c0.9-5.2,0.2-10.6-1.8-15.5h102.4
		C125.4-73.2,125.4-72.5,125.4-72z"/>
	<path id="Path_2860" class="st9" d="M-5.8-62.9c0,1.5,0.1,3.1,0.4,4.6h-55.3v-15.5h57.1C-5.1-70.3-5.8-66.6-5.8-62.9z"/>
	<path id="Path_2861" class="st9" d="M68.4-104h33.1c1.1,0,1.9,1.5,1.7,3.1L102-89.2c-0.1,1.7-1.2,3-2.2,3H72.5
		c-1.7,0-3.3-1.8-3.8-4.3l-1.9-9.9C66.4-102.3,67.2-104,68.4-104z"/>
	<path id="Path_2862" class="st2" d="M79.8-141c-39-2-65.5-23.2-73.4-30.5h57.7c1.6,0,3,0.9,3.7,2.4L79.8-141z"/>
	<rect id="Rectangle_528" x="-192.9" y="-202.6" class="st15" width="147.8" height="144.3"/>
	<path id="Path_2863" class="st12" d="M-8.7-147c0,0,1.3,14.7-5.9,18.7h13.4L-8.7-147z"/>
	<path id="Path_2864" class="st12" d="M-6.7-137.1c0,0-3-2.2-3.2-3.9v10.2h4L-6.7-137.1z"/>
	<g id="Group_2382" transform="translate(233.317 75.409)">
		<path id="Path_2865" class="st11" d="M-243.3-216.5v11.3c0,3.5-2.8,6.4-6.3,6.4l0,0h-2c-3.5,0-6.3-2.8-6.3-6.4v-11.3
			c0-1.2,0.3-2.3,0.9-3.3l0,0c1.2-1.9,3.2-3.1,5.3-3.1h2C-246.1-222.9-243.3-220.1-243.3-216.5z"/>
		<path id="Path_2866" class="st9" d="M-244-202.4c-1.1,2.1-3.2,3.5-5.6,3.5h-2c-3.5,0-6.3-2.8-6.3-6.4v-11.3c0-1.2,0.3-2.3,0.9-3.3
			C-256.8-219.1-254.2-203.6-244-202.4z"/>
	</g>
	<path id="Path_2867" class="st10" d="M-144.6-58.3H-181c-0.8-3.3-3.1-27,17.3-27C-145.1-85.2-143.8-63.7-144.6-58.3z"/>
	<g id="Group_2383" transform="translate(22.022 165.711)">
		<path id="Path_2868" class="st12" d="M-191.6-229.2c0,8.6,4.4,18,4.4,18h7.4c6.5,0,11.8-8.1,11.8-18c0-9.9-12.7-18-19.2-18
			S-191.6-239.1-191.6-229.2z"/>
		<path id="Path_2869" class="st13" d="M-199-229.2c0,10,5.3,18,11.8,18s11.8-8.1,11.8-18c0-9.9-5.3-18-11.8-18
			S-199-239.1-199-229.2z"/>
		<path id="Path_2870" class="st10" d="M-196-229.2c0,7.5,4,13.6,8.9,13.6c4.9,0,8.9-6.1,8.9-13.6s-4-13.6-8.9-13.6
			C-192-242.8-196-236.7-196-229.2z"/>
	</g>
	<path id="Path_2871" class="st16" d="M68.2-175.7h-84.4c-0.4-4-1.2-7.9-2.5-11.7h83.3c0.2,0.4,0.4,0.7,0.5,1.1
		C66.5-182.9,67.5-179.3,68.2-175.7z"/>
</g>
<path id="Path_2872" class="st17" d="M306.1,80.5c-15.2,0-27.6,12.5-27.6,28l0,0c0,15.4,27.6,49.8,27.6,49.8s27.6-34.3,27.6-49.8
	C333.7,93.1,321.3,80.5,306.1,80.5z M306.1,121.3c-7.1,0-12.9-5.8-12.9-13.1s5.8-13.1,12.9-13.1s12.9,5.8,12.9,13.1l0,0
	C319,115.4,313.2,121.3,306.1,121.3L306.1,121.3z"/>
<path id="Path_2874" class="st18" d="M566.9,327.3c0,0-28.6,0.1-72.3,0.1c-0.6-0.3-1-0.4-1-0.4s4.9-27.3,30.5-33.2
	c25.6-5.8,25.9-30.9,41.9-35.9c13.1-4.1,24.9,1.3,32.9-0.1C611.5,298.3,566.9,327.3,566.9,327.3z"/>
<linearGradient id="Rectangle_529_1_" gradientUnits="userSpaceOnUse" x1="-854.605" y1="452.3409" x2="-855.3287" y2="452.3409" gradientTransform="matrix(804.148 0 0 -3.11 687838.0625 1734.99)">
	<stop  offset="0" style="stop-color:#0F6BC7"/>
	<stop  offset="1" style="stop-color:#41BA03"/>
</linearGradient>
<path id="Rectangle_529" class="st19" d="M30,327h577.9c0.6,0,1.2,0.5,1.2,1.2l0,0c0,0.7-0.5,1.2-1.2,1.2H30c-0.6,0-1.2-0.5-1.2-1.2
	l0,0C28.9,327.6,29.4,327,30,327z"/>
<g id="Group_2403" transform="translate(238.653 267.97)">
	<g id="Group_2386" transform="translate(0 73.384)">
		<path id="Path_2875" class="st20" d="M-51.6-113.7c0,0-0.4,0.4-0.9,1c-2.2,2.4-8.2,9.1-14.8,16.6c-1.6,1.8-3.2,3.7-4.8,5.5
			c-2.4,2.8-4.8,5.6-6.9,8.3l0,0c-0.6,0.8-1.3,1.6-1.9,2.3c-1.3,1.6-2.5,3.2-3.6,4.7c-3.3,4.5-5.7,8-6.1,9.9
			c-2.7,11.3,2.5,43.3,3.9,51.1h-73.4c2.2-16.2,5.3-39.1,5.7-42.6c0.6-5.5-18.3-29.1-18.6-46.2c-0.3-17.3,10.9-29.5,12.7-46.5
			c0.9-8-0.1-18.3-1.4-27.2c-0.6-4.7-1.4-8.9-2-12.1c-0.3-1.5,0.1-2.9,1.2-4c0.2-0.3,0.5-0.5,0.9-0.7c1.2-0.8,2.8-0.9,4.1-0.4
			c4.2,1.8,8.9,6.6,10,18.6c0,0,3.5,2.3,9.2,5.9c2.3,1.5,5,3.1,7.9,5c2.2,1.5,4.7,3,7.2,4.6c0.1,0.1,0.4,0.2,0.5,0.3
			c1,0.7,2,1.3,3.1,2l0,0c0.4,0.2,0.7,0.5,1.2,0.7c0.6,0.4,1.4,0.9,2.1,1.3c0.1,0.1,0.3,0.2,0.4,0.3c4.6,3,9.5,6.1,14.3,9.2l0,0
			c0.8,0.4,1.6,1,2.4,1.5c0.6,0.4,1.2,0.8,1.9,1.2c0.8,0.5,1.6,1,2.4,1.5l0,0c5.5,3.5,10.9,7,15.9,10.2c0.8,0.5,1.6,1,2.4,1.5
			c0.6,0.4,1.2,0.8,1.8,1.2c0.8,0.5,1.6,1,2.3,1.5l0,0c9.7,6.1,17.1,11,19.8,12.7C-52.1-113.9-51.6-113.7-51.6-113.7z"/>
		<path id="Path_2876" class="st21" d="M-158-180.9c0.1,2-1.3,3.7-3.2,4.1h-0.5c-0.6-4.7-1.4-8.9-2-12.1c-0.3-1.5-0.7-3.1-0.6-4.7
			c3.2-1.6,4.4,2.3,4.8,3.8C-158.8-186.8-158.3-183.9-158-180.9z"/>
	</g>
	<path id="Path_2877" class="st22" d="M-72.2-17.2c-2.4,2.8-4.8,5.6-6.9,8.3l0,0c-0.6,0.8-1.3,1.6-1.9,2.3c-1.3,1.6-2.5,3.2-3.6,4.7
		c-3.3,4.5-5.7,8-6.1,9.8c-2.7,11.3,2.5,43.3,3.9,51.1h-47.7c8.8-13.3,10-36.8,10-47.6c0-2.7,0.9-6,2.3-9.4
		c2.7-6.6,7.2-14.1,11.4-20.2c3.9-5.7,7.4-10.3,8.9-12.1l0,0c0.4-0.5,0.7-0.9,0.7-0.9l26.3-1.1l0,0l0.4,1.9l0.3,1.6l1.2,6.6
		L-72.2-17.2z"/>
	<g id="Group_2401" transform="translate(26.997)">
		<g id="Group_2390">
			<path id="Path_2878" class="st23" d="M-80.7-5.1l-78.7,8.3c-2.5,0.2-4.7-1.5-5-4.1l-16.2-159.4c-0.2-2.5,1.5-4.7,4-5l78.7-8.3
				c2.5-0.2,4.7,1.5,5,4.1l16.2,159.3C-76.3-7.6-78.1-5.3-80.7-5.1z"/>
			<path id="Path_2879" class="st17" d="M-72.2-6l-78.7,8.3c-2.5,0.2-4.7-1.5-5-4.1l-16.2-159.4c-0.2-2.5,1.5-4.7,4-5l78.7-8.3
				c2.5-0.2,4.7,1.5,5,4.1l16.2,159.3C-67.9-8.5-69.7-6.2-72.2-6z"/>
			<g id="Group_2387" transform="translate(52.332 12.551)">
				<path id="Path_2880" class="st24" d="M-166.5-177c-0.1-0.5-0.5-0.9-1-0.8l-22.8,2.4c-0.5,0.1-0.9,0.4-0.8,0.9
					c0.1,0.5,0.4,0.9,0.9,0.8c0,0,0,0,0.1,0l22.8-2.4C-166.8-176.1-166.5-176.5-166.5-177z"/>
				<path id="Path_2881" class="st24" d="M-194.4-175c-0.5,0.1-0.9,0.5-0.8,1c0.1,0.5,0.5,0.9,1,0.8c0.5-0.1,0.9-0.5,0.8-1l0,0
					C-193.4-174.7-193.9-175.1-194.4-175z"/>
			</g>
			<path id="Path_2882" class="st25" d="M-105.6-11.9c-0.4-3.2-3.2-5.6-6.3-5.2c-3.2,0.4-5.5,3.2-5.1,6.4s3.2,5.6,6.3,5.2
				C-107.6-5.8-105.3-8.7-105.6-11.9L-105.6-11.9z"/>
			<polygon id="Rectangle_530" class="st26" points="-163.8,-153.1 -90.9,-160.7 -77,-24.5 -149.9,-16.8 			"/>
			<polygon id="Rectangle_531" class="st27" points="-151.5,-32.7 -78.6,-40.3 -77,-24.4 -149.9,-16.8 			"/>
			<g id="Group_2388" transform="translate(71.53 190.819)">
				<path id="Path_2883" class="st28" d="M-199.6-220.3l37.6-3.9c0.4-0.1,0.7-0.4,0.7-0.9c-0.1-0.4-0.4-0.7-0.9-0.7l0,0l-37.6,3.9
					c-0.4,0.1-0.7,0.4-0.7,0.9l0,0l0,0C-200.4-220.6-200.1-220.2-199.6-220.3L-199.6-220.3z"/>
				<path id="Path_2884" class="st28" d="M-161-221.6c-0.1-0.4-0.4-0.7-0.9-0.7l0,0l-37.6,3.9c-0.4,0.1-0.7,0.4-0.7,0.9
					c0.1,0.4,0.4,0.7,0.9,0.7l37.6-3.9C-161.2-220.8-160.9-221.2-161-221.6L-161-221.6z"/>
			</g>
			<path id="Path_2885" class="st23" d="M-134-32.9c-0.1-0.5-0.1-1-0.4-1.5c-0.9-2.3-3.1-3.6-5.5-3.4c-2.4,0.2-4.3,2-4.7,4.4
				c-0.1,0.5-0.1,1-0.1,1.6c0.3,3,6.3,9.1,6.3,9.1S-133.7-29.9-134-32.9z M-139.1-29.9c-1.4,0.1-2.6-0.9-2.7-2.3
				c-0.1-0.5,0.1-1.1,0.4-1.5c0.4-0.7,1.1-1.2,1.9-1.2c0.8-0.1,1.6,0.2,2.1,0.8c0.9,1,0.9,2.6-0.1,3.6
				C-138-30.2-138.5-29.9-139.1-29.9L-139.1-29.9z"/>
			<g id="Group_2389" transform="translate(37.458 47.5)">
				<polygon id="Rectangle_532" class="st23" points="-191,-181.4 -149,-185.8 -145.4,-150.7 -187.5,-146.3 				"/>
				<polygon id="Rectangle_533" class="st28" points="-170,-183.6 -134.6,-187.3 -131,-152.2 -166.4,-148.5 				"/>
				<path id="Path_2886" class="st25" d="M-131.9-161l0.9,8.9l-35.4,3.7l-3.6-35.1L-131.9-161z"/>
				<path id="Path_2887" class="st28" d="M-188.3-155.2l6.6-0.7l-0.8-1.8l0.4-1.4l-6.6,0.7L-188.3-155.2z"/>
				<path id="Path_2888" class="st28" d="M-189.7-169.3l6.6-0.7l-0.8-1.8l0.4-1.4l-6.6,0.7L-189.7-169.3z"/>
				<path id="Path_2889" class="st25" d="M-133.4-175.2l-6.6,0.7l0.4-2l-0.8-1.3l6.6-0.7L-133.4-175.2z"/>
			</g>
		</g>
		<g id="Group_2400" transform="translate(41.677 110.701)">
			<g id="Group_2392">
				<g id="Group_2391" transform="translate(0 5.626)">
					<path id="Path_2890" class="st29" d="M-185.3-205.1c-0.2-0.1-0.4-0.3-0.7-0.4c-0.7-0.3-1.4-0.4-2.2-0.3
						c-1.8,0.2-3.2,1.5-3.8,3.1c-0.2,0.6-0.3,1.2-0.2,1.8c0.3,2.5,2.5,4.3,4.9,4c0.9-0.1,1.9-0.5,2.5-1.2c1.1-0.9,1.6-2.3,1.4-3.8
						C-183.4-203.1-184.2-204.3-185.3-205.1z M-185.1-198.2c-0.6,0.5-1.4,0.9-2.2,0.9c-2.2,0.2-4.1-1.4-4.3-3.6
						c-0.1-0.5,0-1,0.1-1.5c0.4-1.6,1.7-2.8,3.4-2.9c0.6-0.1,1.2,0,1.8,0.3c0.3,0.1,0.5,0.2,0.8,0.4c1.8,1.2,2.3,3.7,1.1,5.6
						C-184.6-198.7-184.8-198.5-185.1-198.2L-185.1-198.2z"/>
				</g>
				<path id="Path_2891" class="st23" d="M-190.3-197.7l2.8,4.5l3.8-11l-4.1,7.8L-190.3-197.7z"/>
			</g>
			<g id="Group_2394" transform="translate(2.357 22.712)">
				<g id="Group_2393" transform="translate(0 5.622)">
					<path id="Path_2892" class="st29" d="M-183.9-207.8c-0.1-1.4-0.9-2.6-2-3.4c-0.2-0.1-0.4-0.3-0.7-0.4c-0.7-0.3-1.4-0.4-2.2-0.3
						c-2.5,0.3-4.3,2.5-4,5s2.5,4.3,4.9,4C-185.5-203.1-183.7-205.3-183.9-207.8L-183.9-207.8z M-187.9-203.4
						c-2.2,0.2-4.1-1.3-4.3-3.5s1.3-4.2,3.5-4.4h0.1c0.6-0.1,1.2,0,1.8,0.3c0.3,0.1,0.5,0.2,0.8,0.4c0.9,0.7,1.6,1.8,1.7,2.9
						C-184.3-205.6-185.8-203.7-187.9-203.4z"/>
				</g>
				<path id="Path_2893" class="st23" d="M-191-203.8l2.8,4.5l3.8-11l-4.1,7.8L-191-203.8z"/>
			</g>
			<g id="Group_2396" transform="translate(4.712 51.035)">
				<g id="Group_2395">
					<path id="Path_2894" class="st29" d="M-184.6-213.9c-0.3-2.5-2.5-4.3-4.9-4c-2.5,0.3-4.3,2.5-4,5s2.5,4.3,4.9,4
						C-186.1-209.3-184.3-211.5-184.6-213.9z M-188.6-209.5c-2.2,0.2-4.1-1.4-4.3-3.6c-0.2-2.2,1.4-4.2,3.5-4.4
						c2.2-0.2,4.1,1.4,4.3,3.6C-184.9-211.7-186.4-209.8-188.6-209.5z"/>
				</g>
			</g>
			<g id="Group_2397" transform="translate(20.181 0.851)">
				<path id="Path_2895" class="st29" d="M-154.8-202.8l-42.1,4.4c-0.4,0.1-0.8-0.3-0.9-0.7v-0.1c-0.1-0.4,0.3-0.8,0.7-0.9l42.1-4.4
					c0.5-0.1,0.8,0.3,0.9,0.7v0.1C-154.1-203.2-154.5-202.8-154.8-202.8z"/>
				<path id="Path_2896" class="st29" d="M-154.5-199.7l-42.1,4.4c-0.4,0.1-0.8-0.3-0.9-0.7v-0.1c-0.1-0.4,0.3-0.8,0.7-0.9l42.1-4.4
					c0.4-0.1,0.8,0.3,0.9,0.7v0.1C-153.8-200.1-154.1-199.7-154.5-199.7z"/>
			</g>
			<g id="Group_2398" transform="translate(22.532 23.601)">
				<path id="Path_2897" class="st29" d="M-155.5-208.9l-42.1,4.4c-0.4,0.1-0.8-0.3-0.9-0.7v-0.1c-0.1-0.4,0.3-0.8,0.7-0.9l42.1-4.4
					c0.4-0.1,0.8,0.3,0.9,0.7v0.1C-154.8-209.3-155.1-209-155.5-208.9z"/>
				<path id="Path_2898" class="st29" d="M-155.2-205.8l-42,4.4c-0.4,0.1-0.8-0.3-0.9-0.7v-0.1c-0.1-0.4,0.3-0.8,0.7-0.9l42.1-4.4
					c0.4-0.1,0.8,0.3,0.9,0.7v0.1C-154.5-206.2-154.8-205.8-155.2-205.8z"/>
			</g>
			<g id="Group_2399" transform="translate(24.884 46.351)">
				<path id="Path_2899" class="st29" d="M-156.1-215l-42.1,4.4c-0.4,0.1-0.8-0.3-0.9-0.7v-0.1c-0.1-0.4,0.3-0.8,0.7-0.9l42.1-4.5
					c0.4-0.1,0.8,0.3,0.9,0.7v0.1C-155.4-215.5-155.8-215.1-156.1-215z"/>
				<path id="Path_2900" class="st29" d="M-155.8-211.9l-42.1,4.4c-0.4,0.1-0.8-0.3-0.9-0.7v-0.1c-0.1-0.4,0.3-0.8,0.7-0.9l42.1-4.4
					c0.4-0.1,0.8,0.3,0.9,0.7v0.1C-155.1-212.3-155.4-211.9-155.8-211.9z"/>
			</g>
		</g>
	</g>
	<g id="Group_2402" transform="translate(143.74 27.408)">
		<path id="Path_2901" class="st20" d="M-198.9-175.6c0,0,11.4-10.3,18.9-4.5c7.5,5.8-16.8,24.7-16.8,24.7L-198.9-175.6z"/>
		<path id="Path_2902" class="st20" d="M-185.7-133.4l-13.3,7.5c-3.9,2.1-8.7,0.7-10.9-3.1l-2.2-3.9c-2.1-3.9-0.7-8.8,3.1-11
			l13.3-7.5c3.9-2.1,8.7-0.7,10.9,3.1l2.2,3.9C-180.4-140.5-181.8-135.6-185.7-133.4z"/>
		<path id="Path_2903" class="st20" d="M-183.4-110.9l-13.3,7.5c-3.9,2.1-8.7,0.7-10.9-3.1l-2.2-3.9c-2.1-3.9-0.7-8.8,3.1-11
			l13.3-7.5c3.9-2.1,8.7-0.7,10.9,3.1l2.2,3.9C-178.1-118-179.5-113.1-183.4-110.9z"/>
		<path id="Path_2904" class="st20" d="M-181.1-89l-13.3,7.5c-3.9,2.1-8.7,0.7-10.9-3.1l-2.2-3.9c-2.1-3.9-0.7-8.8,3.1-11l13.3-7.5
			c3.9-2.1,8.7-0.7,10.9,3.1l2.2,3.9C-175.9-96.1-177.3-91.2-181.1-89z"/>
		<path id="Path_2905" class="st21" d="M-211.4-138.4c2.3-1.8,4.8-3.4,7.4-4.8c1.8-0.9,3.9-0.2,4.9,1.5l2.9,4.9c1,1.7,0.5,3.9-1.2,5
			c-2.5,1.6-5.2,3-7.9,4.2c-2.1,0.9-4.5,0.1-5.6-1.9l-1.7-3.1C-213.6-134.6-213.1-137.1-211.4-138.4z"/>
		<path id="Path_2906" class="st21" d="M-209-115.3c2.3-1.8,4.8-3.4,7.4-4.8c1.8-0.9,3.9-0.2,4.9,1.5l2.9,4.9c1,1.7,0.5,3.9-1.2,5
			c-2.5,1.6-5.2,3-7.9,4.2c-2.1,0.9-4.5,0.1-5.6-1.9l-1.7-3.1C-211.2-111.5-210.7-114-209-115.3z"/>
		<path id="Path_2907" class="st21" d="M-206.3-93.6c2.3-1.8,4.8-3.4,7.4-4.8c1.8-0.9,3.9-0.2,4.9,1.5l2.9,4.9c1,1.7,0.5,3.9-1.2,5
			c-2.5,1.6-5.2,3-7.9,4.2c-2.1,0.9-4.5,0.1-5.6-1.9l-1.7-3.1C-208.6-89.8-208.1-92.3-206.3-93.6z"/>
	</g>
</g>
<g id="Group_2405" transform="translate(399.767 235.061)">
	<path id="Path_2911" class="st23" d="M-194.1-145.7l-23.8-12.4l21.3,0.4l-1.6,3.8l4.6,4.7L-194.1-145.7z"/>
	<path id="Path_2912" class="st28" d="M-217.9-158.1l24.6,3.6l18.3,11.8L-217.9-158.1z"/>
	<path id="Path_2913" class="st28" d="M-196.7-157.7l-21.3-0.4l22-7.5L-196.7-157.7z"/>
</g>
</svg>
